<svg width="60" height="60" viewBox="0 0 60 60" fill="none" xmlns="http://www.w3.org/2000/svg">
<rect width="60" height="60" rx="30" fill="white"/>
<path d="M37.9063 22.5116C35.6484 20.6132 32.1602 20.8983 30 23.0975C27.8398 20.8983 24.3516 20.6093 22.0938 22.5116C19.1563 24.9843 19.5859 29.0155 21.6797 31.1522L28.5313 38.1327C28.9219 38.5311 29.4453 38.7538 30 38.7538C30.5586 38.7538 31.0781 38.535 31.4688 38.1366L38.3203 31.1561C40.4102 29.0194 40.8477 24.9882 37.9063 22.5116ZM36.9844 29.8358L30.1328 36.8163C30.0391 36.91 29.9609 36.91 29.8672 36.8163L23.0156 29.8358C21.5898 28.3827 21.3008 25.6327 23.3008 23.9491C24.8203 22.6718 27.1641 22.8632 28.6328 24.3593L30 25.7538L31.3672 24.3593C32.8438 22.8553 35.1875 22.6718 36.6992 23.9452C38.6953 25.6288 38.3984 28.3944 36.9844 29.8358Z" fill="#072E4E"/>
</svg>
