<svg width="21" height="21" viewBox="0 0 21 21" fill="none" xmlns="http://www.w3.org/2000/svg">
<path d="M17.91 1.37988H2.90613C2.21863 1.37988 1.66003 1.94629 1.66003 2.6416V17.6182C1.66003 18.3135 2.21863 18.8799 2.90613 18.8799H17.91C18.5975 18.8799 19.16 18.3135 19.16 17.6182V2.6416C19.16 1.94629 18.5975 1.37988 17.91 1.37988ZM6.9491 16.3799H4.35535V8.02832H6.953V16.3799H6.9491ZM5.65222 6.8877C4.82019 6.8877 4.14832 6.21191 4.14832 5.38379C4.14832 4.55566 4.82019 3.87988 5.65222 3.87988C6.48035 3.87988 7.15613 4.55566 7.15613 5.38379C7.15613 6.21582 6.48425 6.8877 5.65222 6.8877ZM16.6718 16.3799H14.078V12.3174C14.078 11.3486 14.0585 10.1025 12.7303 10.1025C11.3788 10.1025 11.1718 11.1572 11.1718 12.2471V16.3799H8.578V8.02832H11.0663V9.16895H11.1014C11.4491 8.5127 12.2968 7.82129 13.5585 7.82129C16.1835 7.82129 16.6718 9.55176 16.6718 11.8018V16.3799Z" fill="#072E4E"/>
</svg>
