<svg width="502" height="76" viewBox="0 0 502 76" fill="none" xmlns="http://www.w3.org/2000/svg">
<path fill-rule="evenodd" clip-rule="evenodd" d="M21.3631 0.918481C9.89954 3.3396 1.68767 11.3574 0.255476 21.5263C-1.93747 37.1008 10.2299 49.71 27.4329 49.6896C30.4592 49.6861 33.6179 49.3567 34.6269 48.9398C35.616 48.5306 38.4486 48.0381 40.9215 47.8454L45.4177 47.495L45.5814 36.8709L45.7445 26.2468H53.8538C59.6509 26.2468 62.4248 26.4803 63.5824 27.0647C69.2968 29.9522 71.3698 37.3675 68.0948 43.2104C65.8527 47.2109 63.4493 48.4963 57.4676 48.8939L52.6117 49.2164L58.6186 49.5488C65.9924 49.9568 69.5695 51.4011 71.9849 54.9452C73.3781 56.9897 73.5939 57.9025 73.5939 61.7574C73.5939 65.6391 73.3829 66.5182 71.9447 68.6284C69.0276 72.9089 66.716 73.6465 55.4826 73.8799L45.7637 74.0819L45.591 68.647L45.4177 63.2128H42.72H40.0223L39.6902 67.5788C39.5073 69.9801 39.0349 72.5171 38.6411 73.2163C38.2466 73.916 37.9241 74.6361 37.9241 74.8172C37.9241 75.337 58.6204 75.1699 64.6687 74.6018C70.8896 74.0167 73.968 72.7605 76.7683 69.6629C78.9211 67.2825 79.5325 64.8393 79.1758 60.0483C78.7568 54.4195 75.1245 50.8155 68.5132 49.4678L65.201 48.7926L67.581 47.984C75.1275 45.422 77.7736 36.712 72.9045 30.4621C69.4329 26.0058 64.8126 25.0826 45.9879 25.0826C33.3577 25.0826 31.3296 25.2036 31.3296 25.9558C31.3296 26.6246 32.091 26.829 34.5843 26.829C39.5955 26.829 39.7226 27.0892 39.7226 37.382V46.1048L36.875 47.382C34.5159 48.4404 32.9477 48.6593 27.7327 48.6593C21.1101 48.6593 19.1066 48.0591 14.3622 44.653C11.7861 42.8035 8.11424 37.0921 6.75579 32.8221C2.77575 20.3096 9.33181 5.90277 20.7096 2.15902C27.0409 0.075541 34.0615 1.67235 37.538 5.98601L39.0685 7.88496L40.7069 6.69739C41.6074 6.04423 42.4359 5.24379 42.548 4.91837C42.8765 3.96075 37.3174 1.36789 33.4674 0.683296C28.97 -0.116565 25.9905 -0.0589335 21.3631 0.918481ZM385.153 9.7513C384.837 10.3393 382.222 16.1554 379.342 22.676C374.97 32.5747 374.163 34.8742 374.452 36.6066C374.863 39.0615 376.166 40.5186 377.504 40.0197C379.104 39.4236 379.289 37.9141 377.914 36.6701C377.212 36.0349 376.635 34.9364 376.631 34.2286C376.622 32.4932 383.933 16.2049 384.466 16.7737C385.252 17.6131 393.424 36.3237 393.424 37.2842C393.424 37.8093 393.1 38.5533 392.704 38.9375C392.145 39.4806 392.954 39.6361 396.345 39.6361H400.705L399.562 38.225C398.933 37.449 395.641 30.5727 392.247 22.9438C388.852 15.3154 385.997 8.98578 385.901 8.87809C385.806 8.77097 385.469 9.16392 385.153 9.7513ZM106.283 10.571C101.93 12.4885 99.633 14.5458 98.0167 17.9746C95.2872 23.7628 96.1493 29.696 100.364 34.1366C103.787 37.7418 107.903 39.3374 113.31 39.1546C115.701 39.0737 119.073 38.9602 120.804 38.902C122.535 38.8444 124.423 39.0138 125.001 39.2786C125.968 39.7234 126.05 39.2297 126.05 32.9042C126.05 27.3407 126.237 25.8469 127.042 24.983C127.996 23.9596 127.842 23.9183 123.092 23.9183H118.15L119.702 25.7095C121.047 27.2615 121.254 28.0422 121.254 31.5595V35.6181L118.706 36.7411C109.935 40.6071 100.987 34.2845 100.897 24.157C100.859 19.8305 103.721 14.4824 107.064 12.6341C111.749 10.0441 115.09 10.2228 118.345 13.2377C119.695 14.4882 120.127 14.6075 121.229 14.0347C121.944 13.6627 122.441 12.9222 122.337 12.382C121.767 9.409 111.54 8.25578 106.283 10.571ZM138.246 10.4295C139.089 11.333 139.239 13.0066 139.239 21.5088C139.239 32.6032 139.628 34.306 142.747 36.8546C144.957 38.661 150.224 39.9487 153.19 39.4085C155.729 38.9457 158.763 37.0205 160.465 34.7927C161.614 33.289 161.735 32.2376 161.908 22.2813C162.063 13.3408 162.266 11.2294 163.05 10.3882C163.948 9.42414 163.821 9.36476 160.847 9.36476C157.739 9.36476 157.71 9.38048 158.994 10.3899C160.262 11.3871 160.293 11.7166 160.109 22.2784C159.925 32.9391 159.893 33.1714 158.422 34.7176C155.367 37.9304 150.237 38.8409 147.401 36.6741C144.319 34.3205 144.034 33.0241 144.034 21.3563C144.034 11.7137 144.144 10.525 145.084 9.99347C145.865 9.55104 145.002 9.39561 141.693 9.38222C137.43 9.36534 137.294 9.40726 138.246 10.4295ZM175.474 10.6589C176.835 12.5462 176.866 36.7952 175.508 37.8897C175.013 38.2884 174.609 38.8444 174.609 39.125C174.609 39.4061 179.734 39.6361 185.999 39.6361H197.389V37.2557V34.8753L195.545 36.3825C193.807 37.8029 193.322 37.8897 187.152 37.8897H180.604V31.4861V25.0826H183.555C185.829 25.0826 186.916 25.4167 188.288 26.5379C189.267 27.3383 190.232 27.9933 190.432 27.9933C190.631 27.9933 190.795 26.2672 190.795 24.1575V20.3218L188.95 21.829C187.462 23.0451 186.478 23.3361 183.855 23.3361H180.604V16.9326V10.529H186.814C192.431 10.529 193.234 10.667 195.207 11.9669L197.389 13.4048V11.3848V9.36476H185.965H174.541L175.474 10.6589ZM208.387 10.4295C209.248 11.3534 209.379 13.2145 209.379 24.5004C209.379 36.0687 209.263 37.6318 208.33 38.6377C207.295 39.7531 207.398 39.7647 215.974 39.4987C226.004 39.1872 228.925 38.3763 233.225 34.7106C236.677 31.7667 238.125 28.686 238.142 24.2478C238.166 17.8046 234.21 12.8658 227.176 10.5587C224.219 9.58888 222.018 9.36476 215.465 9.36476C207.685 9.36476 207.43 9.40318 208.387 10.4295ZM249.803 10.2793C250.603 11.057 250.744 13.1667 250.744 24.3508C250.744 35.7759 250.614 37.6469 249.752 38.5713C248.794 39.5994 249.166 39.6361 260.543 39.6361H272.326V37.2557V34.8753L270.482 36.3825C268.744 37.8029 268.259 37.8897 262.089 37.8897H255.54V31.4861V25.0826H258.492C260.793 25.0826 261.85 25.415 263.288 26.5897L265.132 28.0969V24.5522C265.132 20.7631 264.75 20.33 263.034 22.1719C262.207 23.0596 261.188 23.3361 258.745 23.3361H255.54V16.8814V10.426L262.088 10.6233C267.898 10.798 268.798 10.968 270.07 12.1299C272.002 13.895 272.326 13.7902 272.326 11.4023V9.36476H260.593C249.927 9.36476 248.946 9.448 249.803 10.2793ZM287.588 10.4592C283.573 12.2306 281.997 15.6449 283.506 19.3066C284.661 22.1096 286.966 23.8164 293.646 26.8133C299.808 29.5773 301.102 30.5628 301.102 32.488C301.102 34.6495 300.003 36.1619 297.776 37.0659C293.669 38.732 288.896 37.5869 286.133 34.2734C285.292 33.2657 284.929 33.1848 283.826 33.7576C278.579 36.4844 290.098 41.0029 297.403 39.0836C298.831 38.7087 300.989 37.5206 302.199 36.4442C304.11 34.7438 304.399 34.1407 304.399 31.8604C304.399 28.2424 302.349 26.3144 294.738 22.7761C286.106 18.7623 284.438 16.5559 287.463 13.1504C290.458 9.7775 296.971 10.2473 299.167 13.9939C300.271 15.8777 302.257 16.3493 303.409 15.001C304.337 13.9159 302.803 11.9658 299.887 10.5215C296.833 9.00849 290.945 8.9788 287.588 10.4592ZM338.477 10.4295C339.337 11.3516 339.469 13.1987 339.469 24.271C339.469 35.0977 339.321 37.2534 338.5 38.3926L337.531 39.7362L347.642 39.5377C358.914 39.3153 360.715 38.8246 362.874 35.387C365.121 31.8092 363.798 26.5979 360.136 24.5994C359.156 24.065 358.238 23.5591 358.098 23.4758C357.957 23.392 358.574 22.5817 359.469 21.6747C362.957 18.1394 361.86 12.7412 357.209 10.5547C355.02 9.52601 353.514 9.36476 346.081 9.36476C337.791 9.36476 337.52 9.4026 338.477 10.4295ZM410.509 10.7677L412.308 12.1649V24.6751C412.308 36.1601 412.214 37.2854 411.166 38.4107L410.024 39.6361H413.207C416.253 39.6361 416.348 39.5901 415.398 38.5713C414.546 37.6568 414.412 35.9593 414.445 26.4919L414.483 15.4772L420.589 27.5165C423.948 34.1383 426.854 39.5744 427.047 39.5959C427.24 39.618 430.267 33.9387 433.773 26.9745L440.147 14.313L440.166 25.408C440.181 34.2827 440.008 36.7289 439.304 37.6329C437.891 39.4463 438.173 39.6361 442.283 39.6361C444.426 39.6361 446.179 39.4865 446.179 39.3037C446.179 39.1203 445.775 38.5777 445.28 38.0975C443.924 36.7807 443.954 12.5438 445.314 10.6589C446.238 9.37756 446.22 9.36476 443.483 9.36476H440.718L434.64 21.3935L428.562 33.4229L422.588 21.3935L416.615 9.36476L412.663 9.36767L408.711 9.37058L410.509 10.7677ZM457.777 10.4295C459.217 11.9751 459.269 36.3551 457.835 38.342L456.902 39.6361H461.225C465.376 39.6361 465.509 39.5936 464.557 38.5713C463.804 37.7639 463.565 36.3592 463.565 32.7499V27.9933H467.635C473.38 27.9933 478.414 26.6002 480.812 24.3461C484.605 20.78 484.537 15.6676 480.652 12.3552C477.727 9.86132 475.23 9.37174 465.42 9.36825C457.092 9.36476 456.82 9.4026 457.777 10.4295ZM495.004 10.6589C496.365 12.5462 496.396 36.7952 495.038 37.8897C493.389 39.2187 494.106 39.6361 498.036 39.6361C502.145 39.6361 502.427 39.4463 501.014 37.6329C499.681 35.9214 499.727 12.5165 501.067 10.6589L502 9.36476H498.036H494.071L495.004 10.6589ZM222.565 11.1647C224.267 11.5193 226.721 12.6183 228.113 13.6493C231.243 15.9674 233.961 20.8452 233.953 24.1302C233.94 29.3607 229.043 35.7037 223.852 37.2138C222.575 37.5858 219.875 37.8897 217.853 37.8897H214.175V24.2093V10.529H216.844C218.311 10.529 220.885 10.8149 222.565 11.1647ZM353.129 11.1548C355.593 11.989 356.855 14.0102 356.855 17.1235C356.855 19.1144 356.503 20.0261 355.275 21.2195C353.835 22.6172 353.274 22.754 348.98 22.754H344.265V16.6415V10.529H347.773C349.702 10.529 352.112 10.8108 353.129 11.1548ZM474.832 11.9145C478.932 13.9899 480.264 18.6359 477.791 22.2312C475.794 25.1326 473.058 26.2451 467.911 26.2457L463.565 26.2468V18.3134V10.3794L468.211 10.6472C470.934 10.8038 473.674 11.3283 474.832 11.9145ZM354.867 25.1216C358.045 26.2905 359.253 27.9211 359.253 31.0437C359.253 36.4523 357.183 37.8897 349.391 37.8897H344.265V31.195V24.5004H348.723C351.174 24.5004 353.939 24.7798 354.867 25.1216ZM99.766 57.7849C97.4358 63.1155 96.518 65.8743 96.9394 66.2818C97.1798 66.5153 97.8693 66.1159 98.4706 65.3958C99.7774 63.8304 104.468 63.4625 104.468 64.9248C104.468 65.9867 105.617 66.7062 106.254 66.0437C106.977 65.2916 102.951 55.6799 101.82 55.4563C101.18 55.33 100.504 56.0961 99.766 57.7849ZM113.46 60.9657V66.5775L116.831 66.2399C126.294 65.291 125.46 55.3539 115.918 55.3539H113.46V60.9657ZM129.047 55.6583C129.047 56.4599 132.941 65.0634 133.643 65.8114C134.787 67.0316 135.654 65.9616 137.957 60.4883C140.135 55.3108 140.154 55.2072 138.87 55.4569C138.307 55.5663 137.197 57.3524 136.222 59.7199L134.543 63.7949L133.531 61.4663C132.974 60.1856 132.156 58.2861 131.713 57.2458C131.269 56.2055 130.488 55.3539 129.977 55.3539C129.466 55.3539 129.047 55.4907 129.047 55.6583ZM147.521 57.0264C144.962 59.2466 144.845 62.2266 147.226 64.5383C150.876 68.0841 157.463 65.6956 157.463 60.8266C157.463 58.0079 154.584 55.3539 151.528 55.3539C150.085 55.3539 148.859 55.8656 147.521 57.0264ZM165.506 57.0264C162.947 59.2466 162.83 62.2266 165.21 64.5383C168.485 67.7185 174.741 65.9966 175.312 61.7574C175.499 60.3684 175.351 60.2939 172.061 60.1274C169.27 59.986 168.614 60.1245 168.614 60.8551C168.614 61.5211 169.247 61.7574 171.033 61.7574C173.262 61.7574 173.402 61.8488 172.814 62.9147C171.391 65.4983 166.596 64.8853 165.857 62.0252C164.928 58.4322 168.401 56.0012 171.776 57.8821C172.728 58.4124 173.881 58.8467 174.339 58.8467C175.663 58.8467 174.655 57.1533 172.767 56.2055C170.103 54.8678 167.678 55.142 165.506 57.0264ZM185.525 56.0815C184.137 57.708 181.317 65.5483 181.913 66.1235C182.316 66.5123 182.82 66.2708 183.431 65.3958C184.085 64.4603 184.941 64.086 186.426 64.086C187.858 64.086 188.845 64.4935 189.598 65.3958C191.113 67.2097 191.787 66.2434 190.826 63.6348C189.263 59.3875 187.256 55.3539 186.705 55.3539C186.398 55.3539 185.867 55.6816 185.525 56.0815ZM198.115 60.6671C198.282 65.9156 198.343 66.131 199.716 66.3196C206.255 67.2173 210.614 61.659 206.772 57.3215C205.588 55.9855 204.772 55.6903 201.653 55.4715L197.942 55.2107L198.115 60.6671ZM217.387 55.9011C214.462 57.1154 213.428 60.4121 215.03 63.4194C216.525 66.2271 220.004 67.13 223.18 65.5355C228.148 63.0405 226.692 56.198 221.068 55.6158C219.75 55.4796 218.094 55.6083 217.387 55.9011ZM233.857 56.0815C231.36 58.0352 232.485 60.5623 236.352 61.6876C238.147 62.2097 238.776 62.6789 238.636 63.3926C238.379 64.7124 235.278 65.0681 234.79 63.8339C234.337 62.6883 232.76 62.6324 232.76 63.7617C232.76 64.8439 235.067 66.4145 236.656 66.4145C238.559 66.4145 240.553 64.7665 240.553 63.193C240.553 61.6643 238.922 60.39 236.167 59.7682C233.957 59.2693 234.2 57.4665 236.512 57.2074C237.415 57.1061 238.155 57.3023 238.155 57.644C238.155 57.9851 238.695 58.2646 239.354 58.2646C240.934 58.2646 240.876 57.3861 239.22 56.2603C237.615 55.1682 235.131 55.0855 233.857 56.0815ZM258.351 60.4476C256.931 63.8747 256.438 65.7317 256.847 66.1235C257.252 66.5129 257.756 66.2725 258.368 65.3958C259.022 64.4603 259.878 64.086 261.363 64.086C262.795 64.086 263.782 64.4935 264.535 65.3958C265.136 66.1159 265.838 66.5024 266.095 66.2544C267.004 65.3748 262.625 55.3539 261.331 55.3539C260.798 55.3539 259.644 57.3279 258.351 60.4476ZM273.918 56.4186C272.742 57.6795 272.625 59.6361 273.675 60.4459C274.087 60.7637 275.451 61.3447 276.705 61.737C278.296 62.2348 278.93 62.7424 278.798 63.4142C278.545 64.7141 275.439 65.0541 274.956 63.8339C274.504 62.6883 272.926 62.6324 272.926 63.7617C272.926 64.8439 275.233 66.4145 276.822 66.4145C278.725 66.4145 280.719 64.7665 280.719 63.193C280.719 61.6643 279.088 60.39 276.333 59.7682C274.123 59.2693 274.366 57.4665 276.678 57.2074C277.581 57.1061 278.321 57.3023 278.321 57.644C278.321 57.9851 278.861 58.2646 279.52 58.2646C281.1 58.2646 281.042 57.3861 279.386 56.2603C277.598 55.0436 275.132 55.1152 273.918 56.4186ZM288.489 56.4198C286.363 58.0911 287.243 60.2794 290.46 61.3202C292.277 61.9088 293.009 62.4659 293.009 63.2611C293.009 64.6763 290.79 65.057 289.735 63.8228C289.312 63.3274 288.574 62.9217 288.095 62.9217C286.636 62.9217 287.504 64.8928 289.34 65.7468C291.726 66.8581 294.613 65.9977 295.353 63.9556C296.079 61.9513 295.113 60.7963 292.04 59.9929C290.34 59.5482 289.711 59.0761 289.711 58.2419C289.711 56.9641 291.983 56.6282 293.125 57.7372C293.485 58.087 294.278 58.2809 294.886 58.1668C295.914 57.9747 295.897 57.8675 294.651 56.6573C293.015 55.0686 290.338 54.9656 288.489 56.4198ZM304.765 56.1345C300.671 58.4287 300.876 63.6028 305.14 65.5675C310.941 68.2407 316.431 62.0048 312.341 57.3879C310.712 55.5489 306.928 54.9225 304.765 56.1345ZM322.75 56.1665C321.178 57.0118 319.741 59.1599 319.707 60.7113C319.638 63.9358 323.565 66.8546 327.06 66.1759C328.911 65.8161 331.077 64.327 331.077 63.4136C331.077 62.6068 329.261 62.8559 328.293 63.7949C327.133 64.9219 325.101 64.908 323.417 63.7617C321.815 62.6725 321.593 59.4067 323.026 58.0148C324.22 56.8558 327.119 56.8325 328.293 57.9735C329.288 58.9387 331.077 59.1535 331.077 58.3071C331.077 58.0096 330.366 57.2237 329.497 56.5606C327.706 55.1926 324.867 55.0267 322.75 56.1665ZM338.27 60.9325C338.27 65.1362 338.455 66.4524 339.02 66.2702C339.529 66.1066 339.824 64.3194 339.942 60.6915C340.086 56.2044 339.967 55.3539 339.192 55.3539C338.427 55.3539 338.27 56.3016 338.27 60.9325ZM349.755 57.7849C347.425 63.1155 346.507 65.8743 346.928 66.2818C347.169 66.5153 347.858 66.1159 348.459 65.3958C349.949 63.6115 354.162 63.512 354.631 65.2503C354.926 66.3493 356.855 66.9513 356.855 65.9447C356.855 65.6863 355.937 63.2634 354.815 60.5599C352.401 54.742 351.339 54.1605 349.755 57.7849ZM363.449 60.8842V66.4145H365.173C371.499 66.4145 374.866 63.1255 373.006 58.764C372.102 56.6439 369.4 55.3539 365.866 55.3539H363.449V60.8842ZM381.48 56.861C379.086 58.8176 378.917 62.0462 381.082 64.49C382.284 65.8458 383.005 66.1235 385.328 66.1235C387.732 66.1235 388.374 65.8551 389.876 64.2222C390.838 63.1767 391.625 61.8139 391.625 61.1933C391.625 56.2533 385.451 53.6168 381.48 56.861ZM398.795 56.4198C396.67 58.0911 397.55 60.2794 400.766 61.3202C402.584 61.9088 403.316 62.4659 403.316 63.2611C403.316 64.6763 401.097 65.057 400.042 63.8228C398.993 62.5951 397.482 62.669 397.734 63.9358C398.283 66.7039 404.308 66.9664 405.57 64.2775C406.492 62.3122 405.636 61.1502 402.524 60.1426C400.745 59.5668 400.018 59.0085 400.018 58.2163C400.018 56.9629 402.304 56.6421 403.432 57.7372C403.792 58.087 404.585 58.2809 405.193 58.1668C406.221 57.9747 406.204 57.8675 404.958 56.6573C403.322 55.0686 400.645 54.9656 398.795 56.4198ZM119.921 58.0067C120.852 58.6395 121.254 59.5069 121.254 60.8842C121.254 63.1732 119.543 64.6681 116.924 64.6681C115.274 64.6681 115.259 64.6332 115.259 60.8842C115.259 57.1352 115.274 57.1003 116.924 57.1003C117.84 57.1003 119.188 57.5084 119.921 58.0067ZM154.328 58.0637C155.904 59.4481 155.772 62.6196 154.092 63.7617C151.285 65.6711 147.631 63.9876 147.631 60.7847C147.631 57.5427 151.806 55.8469 154.328 58.0637ZM205.183 58.2646C207.67 60.6793 205.803 64.6681 202.185 64.6681H200.387V60.8842V57.1003H202.185C203.185 57.1003 204.517 57.6178 205.183 58.2646ZM223.23 58.3251C225.62 60.6461 223.666 64.6681 220.149 64.6681C216.884 64.6681 215.157 60.305 217.515 58.0148C218.85 56.719 221.737 56.8756 223.23 58.3251ZM310.694 58.2646C314.161 61.6317 309.484 66.5182 305.432 63.7617C303.815 62.6621 303.637 59.7257 305.091 58.165C306.401 56.7603 309.196 56.8098 310.694 58.2646ZM370.146 58.0637C372.824 60.4167 370.743 64.6681 366.912 64.6681C365.263 64.6681 365.248 64.6332 365.248 60.8842V57.1003H367.149C368.194 57.1003 369.543 57.534 370.146 58.0637ZM388.131 58.0637C388.77 58.6249 389.227 59.8265 389.227 60.9413C389.227 64.2868 385.093 65.8929 382.633 63.5038C379.138 60.11 384.463 54.8404 388.131 58.0637ZM103.269 62.1154C103.269 62.2388 102.594 62.3396 101.77 62.3396C100.09 62.3396 99.9567 61.9006 100.976 59.7275L101.681 58.225L102.475 60.0581C102.912 61.0664 103.269 61.992 103.269 62.1154ZM187.521 60.7387C187.883 62.1655 187.763 62.3396 186.42 62.3396C184.972 62.3396 184.938 62.2586 185.561 60.2875C186.262 58.0701 186.878 58.2122 187.521 60.7387ZM262.713 61.6119C262.725 62.013 262.033 62.3396 261.171 62.3396C259.918 62.3396 259.694 62.1376 260.04 61.3208C260.278 60.7602 260.617 59.8113 260.793 59.2117C261.087 58.2151 261.182 58.2401 261.903 59.5028C262.337 60.2625 262.701 61.2119 262.713 61.6119ZM353.258 62.1154C353.258 62.2388 352.583 62.3396 351.759 62.3396C350.018 62.3396 350.065 62.4734 350.944 60.0279L351.627 58.1243L352.443 60.0081C352.891 61.0437 353.258 61.992 353.258 62.1154Z" fill="#072E4E"/>
</svg>
