<svg width="262" height="40" viewBox="0 0 262 40" fill="none" xmlns="http://www.w3.org/2000/svg">
<path fill-rule="evenodd" clip-rule="evenodd" d="M11.1496 0.4112C5.16669 1.67365 0.880814 5.85439 0.133336 11.1567C-1.01119 19.2778 5.33909 25.8526 14.3176 25.842C15.897 25.8402 17.5456 25.6684 18.0722 25.451C18.5884 25.2377 20.0668 24.9809 21.3575 24.8804L23.7041 24.6976L23.7895 19.1579L23.8746 13.6182H28.107C31.1326 13.6182 32.5803 13.7399 33.1844 14.0447C36.1668 15.5503 37.2488 19.4168 35.5395 22.4635C34.3693 24.5495 33.115 25.2197 29.993 25.4271L27.4587 25.5952L30.5938 25.7686C34.4422 25.9813 36.3092 26.7344 37.5698 28.5824C38.297 29.6485 38.4096 30.1244 38.4096 32.1345C38.4096 34.1586 38.2995 34.6169 37.5489 35.7173C36.0264 37.9493 34.8199 38.3339 28.9571 38.4556L23.8846 38.5609L23.7945 35.727L23.7041 32.8934H22.2961H20.8881L20.7148 35.17C20.6194 36.4221 20.3728 37.745 20.1672 38.1095C19.9614 38.4744 19.793 38.8499 19.793 38.9443C19.793 39.2154 30.5947 39.1282 33.7514 38.832C36.9982 38.5269 38.6048 37.8719 40.0663 36.2567C41.1899 35.0155 41.509 33.7415 41.3228 31.2433C41.1041 28.3083 39.2084 26.4291 35.7579 25.7264L34.0292 25.3742L35.2714 24.9526C39.2099 23.6167 40.591 19.0751 38.0498 15.8162C36.2379 13.4925 33.8265 13.0111 24.0016 13.0111C17.4098 13.0111 16.3513 13.0742 16.3513 13.4664C16.3513 13.8152 16.7487 13.9217 18.05 13.9217C20.6654 13.9217 20.7317 14.0574 20.7317 19.4244V23.9728L19.2455 24.6388C18.0143 25.1906 17.1958 25.3047 14.474 25.3047C11.0176 25.3047 9.97195 24.9918 7.49579 23.2157C6.15133 22.2514 4.23492 19.2733 3.52593 17.0468C1.4487 10.5223 4.87039 3.01016 10.8086 1.05806C14.113 -0.0283355 17.7771 0.804292 19.5915 3.05357L20.3903 4.04374L21.2454 3.4245C21.7154 3.08393 22.1478 2.66655 22.2063 2.49687C22.3778 1.99753 19.4764 0.645537 17.4671 0.288567C15.1198 -0.128506 13.5648 -0.0984547 11.1496 0.4112ZM201.016 5.01691C200.851 5.32349 199.487 8.35622 197.983 11.7562C195.701 16.9177 195.28 18.1168 195.431 19.0201C195.646 20.3002 196.326 21.0599 197.024 20.7998C197.859 20.489 197.956 19.7019 197.238 19.0532C196.872 18.722 196.57 18.1492 196.569 17.7801C196.564 16.8752 200.38 8.38202 200.658 8.67859C201.068 9.1163 205.333 18.8726 205.333 19.3734C205.333 19.6472 205.164 20.0352 204.957 20.2355C204.665 20.5187 205.087 20.5998 206.857 20.5998H209.133L208.536 19.864C208.208 19.4593 206.49 15.8739 204.719 11.8959C202.947 7.9182 201.456 4.61774 201.406 4.56159C201.357 4.50574 201.181 4.71063 201.016 5.01691ZM55.4705 5.4443C53.1986 6.44418 51.9997 7.51692 51.1561 9.3048C49.7316 12.323 50.1815 15.4167 52.3814 17.7322C54.1676 19.612 56.3159 20.444 59.1381 20.3487C60.3859 20.3065 62.1459 20.2473 63.0491 20.217C63.9524 20.1869 64.938 20.2753 65.2393 20.4134C65.7443 20.6453 65.7869 20.3879 65.7869 17.0896C65.7869 14.1886 65.8845 13.4097 66.3047 12.9592C66.8025 12.4256 66.7221 12.404 64.2431 12.404H61.6637L62.4737 13.338C63.1759 14.1473 63.2838 14.5543 63.2838 16.3884V18.5047L61.954 19.0902C57.3763 21.1061 52.7065 17.8093 52.6595 12.5285C52.6395 10.2725 54.1332 7.48383 55.8782 6.52007C58.323 5.16959 60.0667 5.26278 61.7657 6.83485C62.4703 7.48686 62.6959 7.54909 63.271 7.2504C63.6442 7.05644 63.9033 6.67033 63.8492 6.38863C63.5519 4.83842 58.2142 4.2371 55.4705 5.4443ZM72.1525 5.37054C72.5921 5.84164 72.6703 6.71434 72.6703 11.1476C72.6703 16.9326 72.8737 17.8205 74.5013 19.1494C75.6549 20.0913 78.4036 20.7628 79.9517 20.4811C81.2768 20.2398 82.8606 19.2359 83.7489 18.0743C84.3484 17.2902 84.4116 16.742 84.5017 11.5504C84.5827 6.88858 84.6885 5.78761 85.0977 5.34899C85.5667 4.84631 85.5001 4.81535 83.9479 4.81535C82.3259 4.81535 82.3109 4.82355 82.9811 5.3499C83.6425 5.86987 83.6588 6.04168 83.563 11.5489C83.4667 17.1078 83.4501 17.2289 82.6826 18.0351C81.0878 19.7104 78.4108 20.1851 76.9302 19.0553C75.322 17.8281 75.1734 17.1521 75.1734 11.0681C75.1734 6.04016 75.2306 5.42032 75.7209 5.14318C76.1289 4.91249 75.6784 4.83144 73.9516 4.82446C71.7266 4.81566 71.6553 4.83751 72.1525 5.37054ZM91.5819 5.49014C92.2925 6.47423 92.3084 19.1185 91.5997 19.6891C91.3416 19.8971 91.1304 20.1869 91.1304 20.3333C91.1304 20.4799 93.8056 20.5998 97.0752 20.5998H103.02V19.3586V18.1174L102.057 18.9032C101.15 19.6439 100.897 19.6891 97.6769 19.6891H94.2592V16.3501V13.0111H95.7996C96.9863 13.0111 97.5536 13.1853 98.2698 13.77C98.781 14.1873 99.2845 14.5288 99.3887 14.5288C99.4928 14.5288 99.5783 13.6288 99.5783 12.5288V10.5287L98.6155 11.3146C97.839 11.9487 97.3252 12.1005 95.956 12.1005H94.2592V8.76146V5.42245H97.5007C100.432 5.42245 100.851 5.49439 101.881 6.17221L103.02 6.92197V5.86866V4.81535H97.0574H91.0951L91.5819 5.49014ZM108.76 5.37054C109.209 5.85227 109.278 6.82271 109.278 12.7076C109.278 18.7396 109.217 19.5547 108.73 20.0792C108.19 20.6608 108.244 20.6668 112.719 20.5281C117.955 20.3657 119.479 19.9429 121.723 18.0315C123.525 16.4964 124.28 14.8901 124.289 12.5758C124.302 9.21617 122.237 6.64088 118.566 5.43793C117.022 4.93222 115.874 4.81535 112.454 4.81535C108.393 4.81535 108.26 4.83539 108.76 5.37054ZM130.375 5.29222C130.793 5.69776 130.867 6.79782 130.867 12.6295C130.867 18.587 130.798 19.5625 130.349 20.0446C129.849 20.5806 130.043 20.5998 135.981 20.5998H142.13V19.3586V18.1174L141.168 18.9032C140.261 19.6439 140.008 19.6891 136.787 19.6891H133.37V16.3501V13.0111H134.91C136.111 13.0111 136.663 13.1844 137.413 13.797L138.376 14.5829V12.7346C138.376 10.7588 138.176 10.533 137.281 11.4934C136.849 11.9563 136.317 12.1005 135.042 12.1005H133.37V8.73474V5.36872L136.787 5.47162C139.819 5.56268 140.289 5.65132 140.953 6.2572C141.961 7.17755 142.13 7.12291 142.13 5.87777V4.81535H136.007C130.44 4.81535 129.928 4.85876 130.375 5.29222ZM150.096 5.38602C148 6.30971 147.178 8.09001 147.965 9.99932C148.568 11.4609 149.771 12.3509 153.257 13.9135C156.473 15.3548 157.149 15.8687 157.149 16.8725C157.149 17.9996 156.575 18.7882 155.413 19.2596C153.27 20.1284 150.778 19.5313 149.336 17.8035C148.897 17.2781 148.708 17.2359 148.132 17.5346C145.394 18.9564 151.405 21.3125 155.218 20.3117C155.964 20.1162 157.09 19.4967 157.721 18.9354C158.719 18.0488 158.87 17.7343 158.87 16.5453C158.87 14.6588 157.8 13.6534 153.828 11.8085C149.322 9.7155 148.452 8.56506 150.031 6.78932C151.594 5.03057 154.993 5.27553 156.139 7.22915C156.715 8.21143 157.752 8.4573 158.353 7.75429C158.837 7.18848 158.037 6.1716 156.515 5.4185C154.921 4.62958 151.848 4.6141 150.096 5.38602ZM176.655 5.37054C177.104 5.85136 177.173 6.81451 177.173 12.588C177.173 18.2333 177.096 19.3573 176.667 19.9514L176.161 20.652L181.439 20.5485C187.322 20.4325 188.262 20.1766 189.388 18.3842C190.561 16.5186 189.871 13.8012 187.959 12.7592C187.448 12.4805 186.969 12.2167 186.896 12.1733C186.822 12.1296 187.144 11.7071 187.611 11.2341C189.432 9.39071 188.859 6.57592 186.432 5.4358C185.289 4.89944 184.504 4.81535 180.624 4.81535C176.298 4.81535 176.156 4.83508 176.655 5.37054ZM214.25 5.5469L215.189 6.27541V12.7986C215.189 18.7873 215.14 19.374 214.593 19.9608L213.996 20.5998H215.658C217.248 20.5998 217.297 20.5758 216.802 20.0446C216.357 19.5677 216.287 18.6826 216.304 13.746L216.324 8.00259L219.511 14.2802C221.264 17.7331 222.78 20.5676 222.881 20.5788C222.982 20.5904 224.562 17.629 226.391 13.9976L229.718 7.3955L229.728 13.1808C229.736 17.8084 229.646 19.0839 229.278 19.5553C228.541 20.5008 228.688 20.5998 230.833 20.5998C231.951 20.5998 232.867 20.5218 232.867 20.4264C232.867 20.3308 232.655 20.0479 232.397 19.7975C231.689 19.1109 231.705 6.47302 232.415 5.49014C232.897 4.82203 232.888 4.81535 231.459 4.81535H230.016L226.844 11.0875L223.672 17.36L220.554 11.0875L217.436 4.81535L215.374 4.81687L213.311 4.81839L214.25 5.5469ZM238.919 5.37054C239.671 6.17646 239.698 18.889 238.95 19.925L238.463 20.5998H240.719C242.886 20.5998 242.955 20.5776 242.458 20.0446C242.065 19.6236 241.94 18.8911 241.94 17.0091V14.5288H244.065C247.063 14.5288 249.69 13.8025 250.941 12.6271C252.921 10.7676 252.886 8.10185 250.858 6.37467C249.332 5.07428 248.028 4.819 242.908 4.81717C238.562 4.81535 238.42 4.83508 238.919 5.37054ZM258.349 5.49014C259.059 6.47423 259.075 19.1185 258.366 19.6891C257.506 20.3821 257.88 20.5998 259.931 20.5998C262.076 20.5998 262.223 20.5008 261.485 19.5553C260.79 18.6628 260.814 6.45875 261.513 5.49014L262 4.81535H259.931H257.862L258.349 5.49014ZM116.159 5.75392C117.048 5.93878 118.328 6.51187 119.055 7.04946C120.689 8.25818 122.107 10.8016 122.103 12.5145C122.096 15.2419 119.54 18.5493 116.831 19.3367C116.165 19.5307 114.756 19.6891 113.7 19.6891H111.781V12.5558V5.42245H113.173C113.939 5.42245 115.283 5.57149 116.159 5.75392ZM184.302 5.74876C185.588 6.18374 186.247 7.23765 186.247 8.86102C186.247 9.89915 186.063 10.3745 185.422 10.9968C184.671 11.7256 184.378 11.7969 182.137 11.7969H179.676V8.60968V5.42245H181.507C182.514 5.42245 183.772 5.56936 184.302 5.74876ZM247.82 6.14489C249.961 7.22703 250.656 9.64963 249.365 11.5243C248.323 13.0372 246.895 13.6173 244.209 13.6176L241.94 13.6182V9.48147V5.34443L244.365 5.48407C245.786 5.56572 247.216 5.83921 247.82 6.14489ZM185.21 13.0314C186.868 13.641 187.498 14.4912 187.498 16.1194C187.498 18.9397 186.418 19.6891 182.352 19.6891H179.676V16.1983V12.7076H182.003C183.282 12.7076 184.725 12.8533 185.21 13.0314ZM52.0691 30.0631C50.853 32.8427 50.3739 34.2812 50.5939 34.4937C50.7194 34.6154 51.0792 34.4072 51.393 34.0317C52.0751 33.2155 54.5231 33.0236 54.5231 33.7861C54.5231 34.3398 55.1229 34.715 55.4555 34.3695C55.8325 33.9774 53.7315 28.9655 53.1411 28.8489C52.8072 28.7831 52.4543 29.1825 52.0691 30.0631ZM59.2163 31.7217V34.6479L60.9753 34.4718C65.9142 33.9771 65.479 28.7955 60.4988 28.7955H59.2163V31.7217ZM67.3513 28.9543C67.3513 29.3723 69.3838 33.8584 69.7502 34.2484C70.3471 34.8847 70.7996 34.3267 72.0014 31.4728C73.1384 28.7731 73.1481 28.719 72.4779 28.8492C72.1841 28.9063 71.6049 29.8376 71.0959 31.0721L70.2195 33.1969L69.6913 31.9828C69.401 31.315 68.9739 30.3245 68.7427 29.782C68.5111 29.2396 68.1035 28.7955 67.8366 28.7955C67.5697 28.7955 67.3513 28.8669 67.3513 28.9543ZM76.9931 29.6676C75.6574 30.8253 75.5964 32.3792 76.8388 33.5846C78.7443 35.4335 82.182 34.188 82.182 31.6492C82.182 30.1794 80.6795 28.7955 79.0844 28.7955C78.3313 28.7955 77.6911 29.0623 76.9931 29.6676ZM86.3796 29.6676C85.0439 30.8253 84.9829 32.3792 86.2253 33.5846C87.9346 35.2428 91.1992 34.345 91.4974 32.1345C91.595 31.4103 91.5181 31.3714 89.8007 31.2846C88.3439 31.2108 88.0016 31.2831 88.0016 31.664C88.0016 32.0113 88.3323 32.1345 89.2641 32.1345C90.4274 32.1345 90.5006 32.1822 90.1936 32.738C89.4509 34.0851 86.9484 33.7655 86.5626 32.2742C86.078 30.4007 87.8905 29.1331 89.652 30.1138C90.1489 30.3904 90.7506 30.6168 90.9896 30.6168C91.6805 30.6168 91.1548 29.7338 90.1692 29.2396C88.7791 28.5421 87.5132 28.685 86.3796 29.6676ZM96.8277 29.1749C96.1034 30.0231 94.6316 34.1112 94.9426 34.4111C95.1532 34.6139 95.416 34.4879 95.7351 34.0317C96.0765 33.5439 96.523 33.3487 97.298 33.3487C98.0455 33.3487 98.5605 33.5612 98.9538 34.0317C99.7441 34.9775 100.096 34.4737 99.5945 33.1135C98.7789 30.8988 97.731 28.7955 97.4435 28.7955C97.2833 28.7955 97.0061 28.9664 96.8277 29.1749ZM103.399 31.566C103.486 34.3028 103.518 34.4151 104.234 34.5134C107.647 34.9815 109.922 32.0832 107.917 29.8215C107.299 29.1249 106.873 28.971 105.245 28.8568L103.308 28.7208L103.399 31.566ZM113.457 29.0809C111.93 29.7141 111.391 31.433 112.227 33.0012C113.007 34.4652 114.823 34.936 116.48 34.1045C119.073 32.8035 118.313 29.2357 115.378 28.9321C114.69 28.8611 113.826 28.9282 113.457 29.0809ZM122.053 29.1749C120.75 30.1937 121.337 31.5113 123.355 32.0981C124.292 32.3704 124.62 32.615 124.547 32.9872C124.413 33.6753 122.795 33.8608 122.54 33.2173C122.304 32.6199 121.48 32.5908 121.48 33.1796C121.48 33.7439 122.684 34.5629 123.514 34.5629C124.507 34.5629 125.548 33.7036 125.548 32.8831C125.548 32.086 124.696 31.4215 123.259 31.0973C122.105 30.8372 122.232 29.8971 123.438 29.762C123.91 29.7092 124.296 29.8115 124.296 29.9897C124.296 30.1675 124.578 30.3132 124.922 30.3132C125.747 30.3132 125.716 29.8552 124.852 29.2681C124.014 28.6987 122.718 28.6556 122.053 29.1749ZM134.836 31.4515C134.096 33.2385 133.838 34.2068 134.051 34.4111C134.263 34.6142 134.526 34.4888 134.846 34.0317C135.187 33.5439 135.633 33.3487 136.408 33.3487C137.156 33.3487 137.671 33.5612 138.064 34.0317C138.378 34.4072 138.744 34.6087 138.878 34.4794C139.353 34.0208 137.067 28.7955 136.392 28.7955C136.114 28.7955 135.511 29.8248 134.836 31.4515ZM142.961 29.3507C142.348 30.0082 142.286 31.0284 142.834 31.4506C143.05 31.6164 143.761 31.9193 144.416 32.1239C145.246 32.3834 145.577 32.6481 145.508 32.9984C145.376 33.6762 143.755 33.8535 143.503 33.2173C143.267 32.6199 142.443 32.5908 142.443 33.1796C142.443 33.7439 143.648 34.5629 144.477 34.5629C145.47 34.5629 146.511 33.7036 146.511 32.8831C146.511 32.086 145.659 31.4215 144.222 31.0973C143.068 30.8372 143.195 29.8971 144.402 29.762C144.873 29.7092 145.259 29.8115 145.259 29.9897C145.259 30.1675 145.541 30.3132 145.885 30.3132C146.71 30.3132 146.679 29.8552 145.815 29.2681C144.882 28.6337 143.595 28.6711 142.961 29.3507ZM150.566 29.3513C149.456 30.2228 149.916 31.3638 151.594 31.9066C152.543 32.2134 152.925 32.5039 152.925 32.9186C152.925 33.6565 151.767 33.855 151.217 33.2115C150.995 32.9532 150.61 32.7416 150.36 32.7416C149.599 32.7416 150.052 33.7694 151.01 34.2147C152.256 34.7942 153.762 34.3456 154.148 33.2807C154.527 32.2356 154.023 31.6334 152.419 31.2145C151.532 30.9826 151.204 30.7364 151.204 30.3014C151.204 29.6351 152.39 29.46 152.986 30.0382C153.174 30.2207 153.588 30.3217 153.905 30.2623C154.441 30.1621 154.432 30.1062 153.782 29.4752C152.928 28.6468 151.531 28.5931 150.566 29.3513ZM159.06 29.2026C156.924 30.3988 157.031 33.0968 159.256 34.1212C162.284 35.5151 165.149 32.2635 163.015 29.8561C162.165 28.8972 160.189 28.5706 159.06 29.2026ZM168.447 29.2193C167.627 29.66 166.877 30.7801 166.859 31.5891C166.823 33.2704 168.873 34.7924 170.697 34.4384C171.663 34.2509 172.793 33.4744 172.793 32.9981C172.793 32.5774 171.845 32.7073 171.34 33.1969C170.735 33.7846 169.674 33.7773 168.795 33.1796C167.959 32.6117 167.843 30.9088 168.591 30.183C169.214 29.5787 170.727 29.5665 171.34 30.1615C171.859 30.6648 172.793 30.7768 172.793 30.3354C172.793 30.1803 172.422 29.7705 171.968 29.4248C171.034 28.7114 169.552 28.6249 168.447 29.2193ZM176.548 31.7044C176.548 33.8963 176.644 34.5826 176.939 34.4876C177.205 34.4023 177.359 33.4704 177.42 31.5787C177.495 29.239 177.433 28.7955 177.029 28.7955C176.629 28.7955 176.548 29.2897 176.548 31.7044ZM182.541 30.0631C181.325 32.8427 180.846 34.2812 181.066 34.4937C181.192 34.6154 181.551 34.4072 181.865 34.0317C182.643 33.1013 184.842 33.0494 185.086 33.9558C185.24 34.5289 186.247 34.8428 186.247 34.3179C186.247 34.1832 185.768 32.9198 185.182 31.5101C183.922 28.4765 183.368 28.1732 182.541 30.0631ZM189.689 31.6792V34.5629H190.588C193.89 34.5629 195.647 32.8479 194.676 30.5737C194.204 29.4682 192.795 28.7955 190.95 28.7955H189.689V31.6792ZM199.099 29.5814C197.85 30.6016 197.762 32.2851 198.891 33.5594C199.518 34.2663 199.895 34.4111 201.107 34.4111C202.362 34.4111 202.697 34.2712 203.481 33.4197C203.983 32.8746 204.394 32.164 204.394 31.8404C204.394 29.2645 201.171 27.8897 199.099 29.5814ZM208.136 29.3513C207.027 30.2228 207.486 31.3638 209.165 31.9066C210.113 32.2134 210.495 32.5039 210.495 32.9186C210.495 33.6565 209.337 33.855 208.787 33.2115C208.239 32.5713 207.451 32.6099 207.582 33.2704C207.869 34.7138 211.013 34.8507 211.672 33.4486C212.153 32.4238 211.706 31.8179 210.082 31.2925C209.154 30.9923 208.774 30.7012 208.774 30.2881C208.774 29.6345 209.967 29.4673 210.556 30.0382C210.744 30.2207 211.158 30.3217 211.475 30.2623C212.012 30.1621 212.003 30.1062 211.352 29.4752C210.498 28.6468 209.101 28.5931 208.136 29.3513ZM62.5883 30.1788C63.0742 30.5087 63.2838 30.961 63.2838 31.6792C63.2838 32.8728 62.3911 33.6523 61.0238 33.6523C60.1631 33.6523 60.155 33.634 60.155 31.6792C60.155 29.7244 60.1631 29.7062 61.0238 29.7062C61.5019 29.7062 62.2059 29.9189 62.5883 30.1788ZM80.5459 30.2085C81.3681 30.9304 81.2993 32.5841 80.4226 33.1796C78.9577 34.1753 77.0507 33.2974 77.0507 31.6273C77.0507 29.9368 79.2293 29.0526 80.5459 30.2085ZM107.087 30.3132C108.385 31.5724 107.411 33.6523 105.523 33.6523H104.584V31.6792V29.7062H105.523C106.045 29.7062 106.74 29.976 107.087 30.3132ZM116.506 30.3448C117.754 31.5551 116.734 33.6523 114.898 33.6523C113.194 33.6523 112.293 31.3772 113.524 30.183C114.221 29.5073 115.727 29.589 116.506 30.3448ZM162.155 30.3132C163.965 32.069 161.523 34.6169 159.409 33.1796C158.565 32.6062 158.472 31.0752 159.231 30.2613C159.914 29.5289 161.373 29.5547 162.155 30.3132ZM193.184 30.2085C194.581 31.4355 193.495 33.6523 191.496 33.6523C190.635 33.6523 190.627 33.634 190.627 31.6792V29.7062H191.619C192.165 29.7062 192.869 29.9323 193.184 30.2085ZM202.57 30.2085C202.904 30.5011 203.143 31.1277 203.143 31.709C203.143 33.4534 200.985 34.2909 199.701 33.0452C197.877 31.2755 200.656 28.5278 202.57 30.2085ZM53.8973 32.3212C53.8973 32.3856 53.5453 32.4381 53.1151 32.4381C52.2384 32.4381 52.1686 32.2092 52.7008 31.0761L53.0688 30.2926L53.4831 31.2485C53.7108 31.7742 53.8973 32.2569 53.8973 32.3212ZM97.8693 31.6033C98.0586 32.3473 97.996 32.4381 97.2948 32.4381C96.5392 32.4381 96.5214 32.3959 96.8465 31.3681C97.2122 30.2119 97.5339 30.2859 97.8693 31.6033ZM137.113 32.0586C137.119 32.2678 136.758 32.4381 136.309 32.4381C135.654 32.4381 135.538 32.3327 135.718 31.9069C135.842 31.6146 136.019 31.1198 136.111 30.8071C136.264 30.2874 136.314 30.3005 136.69 30.9589C136.917 31.355 137.107 31.8501 137.113 32.0586ZM184.37 32.3212C184.37 32.3856 184.018 32.4381 183.587 32.4381C182.679 32.4381 182.704 32.5079 183.162 31.2327L183.519 30.2401L183.944 31.2224C184.178 31.7624 184.37 32.2569 184.37 32.3212Z" fill="white"/>
</svg>
