<svg width="21" height="17" viewBox="0 0 21 17" fill="none" xmlns="http://www.w3.org/2000/svg">
<path d="M18.3542 4.05602C18.3669 4.23367 18.3669 4.41137 18.3669 4.58902C18.3669 10.0078 14.2425 16.2514 6.70445 16.2514C4.3821 16.2514 2.22476 15.5788 0.410034 14.4114C0.739995 14.4494 1.05722 14.4621 1.39988 14.4621C3.31609 14.4621 5.08007 13.8149 6.48871 12.7109C4.68667 12.6728 3.17652 11.4926 2.65621 9.8682C2.91003 9.90625 3.16382 9.93164 3.43035 9.93164C3.79835 9.93164 4.1664 9.88086 4.50902 9.79207C2.63085 9.41133 1.22218 7.7616 1.22218 5.76922V5.71848C1.76785 6.02305 2.40242 6.2134 3.07496 6.23875C1.97089 5.5027 1.24757 4.24637 1.24757 2.82504C1.24757 2.06363 1.45058 1.36566 1.80593 0.756523C3.82371 3.24383 6.85671 4.86816 10.2577 5.04586C10.1943 4.74129 10.1562 4.42406 10.1562 4.1068C10.1562 1.84789 11.9836 0.0078125 14.2552 0.0078125C15.4353 0.0078125 16.5013 0.502734 17.2501 1.30223C18.1764 1.12457 19.0648 0.781914 19.8516 0.312383C19.547 1.26418 18.8998 2.06367 18.0496 2.57125C18.8744 2.48246 19.6739 2.25398 20.41 1.93676C19.8517 2.74891 19.1537 3.47223 18.3542 4.05602Z" fill="#072E4E"/>
</svg>
