<svg width="20" height="14" viewBox="0 0 20 14" fill="none" xmlns="http://www.w3.org/2000/svg">
<path d="M19.4952 2.54911C19.2771 1.72793 18.6345 1.08119 17.8187 0.86171C16.3399 0.462891 10.41 0.462891 10.41 0.462891C10.41 0.462891 4.4801 0.462891 3.00124 0.86171C2.18538 1.08122 1.54281 1.72793 1.32472 2.54911C0.928467 4.03754 0.928467 7.14303 0.928467 7.14303C0.928467 7.14303 0.928467 10.2485 1.32472 11.737C1.54281 12.5581 2.18538 13.1779 3.00124 13.3974C4.4801 13.7962 10.41 13.7962 10.41 13.7962C10.41 13.7962 16.3398 13.7962 17.8187 13.3974C18.6345 13.1779 19.2771 12.5581 19.4952 11.737C19.8915 10.2485 19.8915 7.14303 19.8915 7.14303C19.8915 7.14303 19.8915 4.03754 19.4952 2.54911ZM8.47055 9.96258V4.32348L13.4268 7.1431L8.47055 9.96258Z" fill="#072E4E"/>
</svg>
